<?xml version="1.0" encoding="UTF-8"?>
<svg width="18px" height="18px" viewBox="0 0 18 18" version="1.1" xmlns="http://www.w3.org/2000/svg" xmlns:xlink="http://www.w3.org/1999/xlink">
    <title>iconfinder_phone-call-support_2796466</title>
    <g id="Page-1" stroke="none" stroke-width="1" fill="none" fill-rule="evenodd" stroke-linecap="round" stroke-linejoin="round">
        <g id="homepage-desktop" transform="translate(-1204.000000, -19.000000)" stroke="#008DFF" stroke-width="2">
            <g id="hero" transform="translate(-37.000000, -260.000000)">
                <g id="top" transform="translate(212.000000, 274.000000)">
                    <g id="phone" transform="translate(1030.000000, 0.000000)">
                        <g id="iconfinder_phone-call-support_2796466" transform="translate(0.000000, 6.000000)">
                            <path d="M8.27272727,3.57092863 C8.42545455,2.13820136 6.14181818,0.158201359 4.70909091,0.0109286318 C2.74181818,-0.201798641 0,2.73820136 0,4.71638318 C0,8.58547409 7.07636364,15.6618377 10.9454545,15.6618377 C12.9236364,15.6618377 15.8636364,12.9200195 15.6509091,10.9527468 C15.5,9.52001954 13.52,7.23638318 12.0872727,7.38911045 C11.0145455,7.5036559 10.4945455,9.0436559 9.41454545,9.0436559 C8.42545455,9.0436559 6.61454545,7.22547409 6.61454545,6.2436559 C6.61818182,5.1636559 8.15818182,4.6436559 8.27272727,3.57092863 Z" id="Path"></path>
                        </g>
                    </g>
                </g>
            </g>
        </g>
    </g>
</svg>