<?xml version="1.0" encoding="UTF-8"?>
<svg width="200px" height="22px" viewBox="0 0 200 22" version="1.1" xmlns="http://www.w3.org/2000/svg" xmlns:xlink="http://www.w3.org/1999/xlink">
    <title>logo</title>
    <defs>
        <polygon id="path-1" points="6.06060606e-05 0.141878788 20.8715758 0.141878788 20.8715758 21.2121212 6.06060606e-05 21.2121212"></polygon>
        <polygon id="path-3" points="0.454 0.141878788 21.3255152 0.141878788 21.3255152 21.2121212 0.454 21.2121212"></polygon>
        <polygon id="path-5" points="0.231732803 0.103454545 20.150303 0.103454545 20.150303 20.0367879 0.231732803 20.0367879"></polygon>
    </defs>
    <g id="Page-1" stroke="none" stroke-width="1" fill="none" fill-rule="evenodd">
        <g id="homepage-desktop" transform="translate(-175.000000, -18.000000)">
            <g id="hero" transform="translate(-37.000000, -260.000000)">
                <g id="top" transform="translate(212.000000, 274.000000)">
                    <g id="logo" transform="translate(0.000000, 4.464242)">
                        <g id="Group-3" transform="translate(0.000000, 0.000000)">
                            <mask id="mask-2" fill="white">
                                <use xlink:href="#path-1"></use>
                            </mask>
                            <g id="Clip-2"></g>
                            <path d="M20.8430909,1.16612121 L20.643697,6.00672727 C17.5976364,5.32309091 14.4364242,4.98187879 11.1903636,4.98187879 C9.11218182,4.98187879 8.37157576,5.43763636 8.37157576,6.34915152 C8.37157576,6.83278788 8.79884848,7.23157576 9.65278788,7.5170303 C10.5073333,7.77218182 11.5606667,8.02854545 12.7849091,8.22793939 C14.0091515,8.42612121 15.234,8.71218182 16.4582424,9.054 C17.6830909,9.39521212 18.7358182,9.99278788 19.5903636,10.8479394 C20.444303,11.7024848 20.8715758,12.784303 20.8715758,14.1218788 C20.8715758,18.7921818 17.3697576,21.2121818 9.48187879,21.2121818 C5.63763636,21.2121818 2.4770303,20.5570303 6.06060606e-05,19.2194545 L2.33460606,14.7770303 C4.35642424,15.8018788 6.97642424,16.3152121 10.1370303,16.3152121 C13.2685455,16.3152121 14.8352121,15.8303636 14.8352121,14.8624848 C14.8352121,12.3279394 2.61945455,14.2352121 2.61945455,6.94672727 C2.61945455,2.73278788 6.15036364,0.141878788 12.984303,0.141878788 C15.7467273,0.141878788 18.3661212,0.483090909 20.8430909,1.16612121" id="Fill-1" fill="#161D6C" mask="url(#mask-2)"></path>
                        </g>
                        <polygon id="Fill-4" fill="#161D6C" points="45.2488485 0.710363636 43.8821818 5.72248485 36.8488485 5.72248485 34.4852121 20.6430909 28.6197576 20.6430909 30.9833939 5.72248485 23.4088485 5.72248485 24.2058182 0.710363636"></polygon>
                        <path d="M50.7761818,12.926303 L55.7307273,12.926303 L54.107697,7.00387879 L50.7761818,12.926303 Z M57.8664848,20.6426667 L56.8695152,17.0269091 L48.4695152,17.0269091 L46.4198182,20.6426667 L39.6137576,20.6426667 L52.3422424,0.710545455 L57.6670909,0.710545455 L64.0452727,20.6426667 L57.8664848,20.6426667 Z" id="Fill-6" fill="#161D6C"></path>
                        <path d="M74.612,5.55115152 L73.7295758,11.0753939 L78.6556364,11.0753939 C81.0471515,11.0753939 82.641697,9.85115152 82.641697,8.05781818 C82.641697,6.46266667 81.3889697,5.55115152 79.481697,5.55115152 L74.612,5.55115152 Z M83.8665455,14.6911515 L86.6859394,20.6420606 L80.1071515,20.6420606 L78.342303,15.716 L78.0010909,15.716 L72.9889697,15.716 L72.2204848,20.6420606 L66.3544242,20.6420606 L69.5156364,0.710545455 L80.3641212,0.710545455 C82.8410909,0.710545455 84.8338182,1.30872727 86.2871515,2.47660606 C87.7392727,3.64327273 88.4792727,5.26690909 88.4792727,7.31721212 C88.4792727,10.876 86.941697,13.3535758 83.8665455,14.6911515 L83.8665455,14.6911515 Z" id="Fill-8" fill="#161D6C"></path>
                        <polygon id="Fill-10" fill="#008DFF" points="96.9386061 15.6310909 108.471333 15.6310909 107.673758 20.6432121 90.2761818 20.6432121 93.4373939 0.710484848 99.3022424 0.710484848"></polygon>
                        <path d="M130.883939,5.72224242 L118.411212,5.72224242 L117.984545,8.37072727 L129.288788,8.37072727 L128.576667,12.8689091 L117.27303,12.8689091 L117.18697,13.4670909 C116.931212,15.0901212 117.27303,15.6313333 118.781515,15.6313333 L129.516667,15.6313333 L128.178485,20.6428485 L117.215455,20.6428485 C112.631818,20.6428485 110.580909,17.9089091 111.350606,13.2392121 L113.314848,0.709515152 L131.111212,0.709515152 L130.883939,5.72224242 Z" id="Fill-12" fill="#008DFF"></path>
                        <path d="M141.251455,12.926303 L146.206,12.926303 L144.58297,7.00387879 L141.251455,12.926303 Z M148.341152,20.6426667 L147.344788,17.0269091 L138.944182,17.0269091 L136.895091,20.6426667 L130.08903,20.6426667 L142.816909,0.710545455 L148.141758,0.710545455 L154.520545,20.6426667 L148.341152,20.6426667 Z" id="Fill-14" fill="#008DFF"></path>
                        <g id="Group-18" transform="translate(155.151515, 0.000000)">
                            <mask id="mask-4" fill="white">
                                <use xlink:href="#path-3"></use>
                            </mask>
                            <g id="Clip-17"></g>
                            <path d="M21.2970303,1.16612121 L21.0976364,6.00672727 C18.0515758,5.32309091 14.8903636,4.98187879 11.644303,4.98187879 C9.56612121,4.98187879 8.82551515,5.43763636 8.82551515,6.34915152 C8.82551515,6.83278788 9.25278788,7.23157576 10.1067273,7.5170303 C10.9606667,7.77218182 12.0146061,8.02854545 13.2388485,8.22793939 C14.4630909,8.42612121 15.6879394,8.71218182 16.9121818,9.054 C18.1364242,9.39521212 19.1891515,9.99278788 20.044303,10.8479394 C20.8982424,11.7024848 21.3255152,12.784303 21.3255152,14.1218788 C21.3255152,18.7921818 17.823697,21.2121818 9.93581818,21.2121818 C6.09157576,21.2121818 2.9309697,20.5570303 0.454,19.2194545 L2.78854545,14.7770303 C4.81036364,15.8018788 7.43036364,16.3152121 10.5903636,16.3152121 C13.7224848,16.3152121 15.2891515,15.8303636 15.2891515,14.8624848 C15.2891515,12.3279394 3.07339394,14.2352121 3.07339394,6.94672727 C3.07339394,2.73278788 6.60430303,0.141878788 13.4382424,0.141878788 C16.2006667,0.141878788 18.8200606,0.483090909 21.2970303,1.16612121" id="Fill-16" fill="#008DFF" mask="url(#mask-4)"></path>
                        </g>
                        <g id="Group-21" transform="translate(179.393939, 0.606061)">
                            <mask id="mask-6" fill="white">
                                <use xlink:href="#path-5"></use>
                            </mask>
                            <g id="Clip-20"></g>
                            <path d="M19.9233333,5.11618182 L7.45060606,5.11618182 L7.02454545,7.76466667 L18.3281818,7.76466667 L17.6160606,12.2628485 L6.31242424,12.2628485 L6.22575758,12.8610303 C5.97121212,14.4840606 6.31242424,15.0252727 7.82090909,15.0252727 L18.5560606,15.0252727 L17.2178788,20.0367879 L6.25484848,20.0367879 C1.67121212,20.0367879 -0.37969697,17.3028485 0.39,12.6331515 L2.35424242,0.103454545 L20.1506061,0.103454545 L19.9233333,5.11618182 Z" id="Fill-19" fill="#008DFF" mask="url(#mask-6)"></path>
                        </g>
                        <polygon id="Fill-22" fill="#008DFF" points="64.7493333 17.0142424 56.9741818 17.0015152 59.0899394 12.8954545 66.8650909 12.9069697"></polygon>
                    </g>
                </g>
            </g>
        </g>
    </g>
</svg>